<?xml version="1.0" encoding="UTF-8" standalone="no"?>
<svg
   xmlns:dc="http://purl.org/dc/elements/1.1/"
   xmlns:cc="http://creativecommons.org/ns#"
   xmlns:rdf="http://www.w3.org/1999/02/22-rdf-syntax-ns#"
   xmlns:svg="http://www.w3.org/2000/svg"
   xmlns="http://www.w3.org/2000/svg"
   xmlns:sodipodi="http://sodipodi.sourceforge.net/DTD/sodipodi-0.dtd"
   xmlns:inkscape="http://www.inkscape.org/namespaces/inkscape"
   viewBox="0 0 512 512"
   version="1.1"
   id="svg3979"
   sodipodi:docname="list-alt.svg"
   inkscape:version="0.92.3 (2405546, 2018-03-11)">
  <metadata
     id="metadata3985">
    <rdf:RDF>
      <cc:Work
         rdf:about="">
        <dc:format>image/svg+xml</dc:format>
        <dc:type
           rdf:resource="http://purl.org/dc/dcmitype/StillImage" />
      </cc:Work>
    </rdf:RDF>
  </metadata>
  <defs
     id="defs3983" />
  <sodipodi:namedview
     pagecolor="#ffffff"
     bordercolor="#666666"
     borderopacity="1"
     objecttolerance="10"
     gridtolerance="10"
     guidetolerance="10"
     inkscape:pageopacity="0"
     inkscape:pageshadow="2"
     inkscape:window-width="1920"
     inkscape:window-height="1017"
     id="namedview3981"
     showgrid="false"
     inkscape:zoom="0.4609375"
     inkscape:cx="-113.89831"
     inkscape:cy="256"
     inkscape:window-x="-8"
     inkscape:window-y="-8"
     inkscape:window-maximized="1"
     inkscape:current-layer="svg3979" />
  <path
     d="M 376.58463,123.79804 H 130.94079 c -15.65389,0 -28.34352,12.68963 -28.34352,28.34352 v 207.85247 c 0,15.65389 12.68963,28.34352 28.34352,28.34352 h 245.64384 c 15.65389,0 28.34352,-12.68963 28.34352,-28.34352 V 152.14156 c 0,-15.65389 -12.68963,-28.34352 -28.34352,-28.34352 z m -3.54294,236.19599 H 134.48373 a 3.54294,3.54294 0 0 1 -3.54294,-3.54294 V 155.6845 a 3.54294,3.54294 0 0 1 3.54294,-3.54294 h 238.55796 a 3.54294,3.54294 0 0 1 3.54294,3.54294 v 200.76659 a 3.54294,3.54294 0 0 1 -3.54294,3.54294 z m -24.80058,-54.32508 v 14.17176 c 0,3.91317 -3.17271,7.08588 -7.08588,7.08588 h -118.098 c -3.91317,0 -7.08588,-3.17271 -7.08588,-7.08588 v -14.17176 c 0,-3.91317 3.17271,-7.08588 7.08588,-7.08588 h 118.098 c 3.91317,0 7.08588,3.17271 7.08588,7.08588 z m 0,-56.68704 v 14.17176 c 0,3.91317 -3.17271,7.08588 -7.08588,7.08588 h -118.098 c -3.91317,0 -7.08588,-3.17271 -7.08588,-7.08588 v -14.17176 c 0,-3.91317 3.17271,-7.08588 7.08588,-7.08588 h 118.098 c 3.91317,0 7.08588,3.17271 7.08588,7.08588 z m 0,-56.68704 v 14.17176 c 0,3.91317 -3.17271,7.08588 -7.08588,7.08588 h -118.098 c -3.91317,0 -7.08588,-3.17271 -7.08588,-7.08588 v -14.17176 c 0,-3.91317 3.17271,-7.08588 7.08588,-7.08588 h 118.098 c 3.91317,0 7.08588,3.17271 7.08588,7.08588 z m -148.80348,7.08588 c 0,11.74012 -9.51752,21.25764 -21.25764,21.25764 -11.74012,0 -21.25764,-9.51752 -21.25764,-21.25764 0,-11.74012 9.51752,-21.25764 21.25764,-21.25764 11.74012,0 21.25764,9.51752 21.25764,21.25764 z m 0,56.68704 c 0,11.74012 -9.51752,21.25764 -21.25764,21.25764 -11.74012,0 -21.25764,-9.51752 -21.25764,-21.25764 0,-11.74012 9.51752,-21.25764 21.25764,-21.25764 11.74012,0 21.25764,9.51752 21.25764,21.25764 z m 0,56.68704 c 0,11.74012 -9.51752,21.25764 -21.25764,21.25764 -11.74012,0 -21.25764,-9.51752 -21.25764,-21.25764 0,-11.74012 9.51752,-21.25764 21.25764,-21.25764 11.74012,0 21.25764,9.51752 21.25764,21.25764 z"
     id="path3977"
     inkscape:connector-curvature="0"
     style="stroke-width:0.59048998" />
</svg>
